# xmcd CD database file
#
# Track frame offsets:
#	150
#	19730
#	42307
#
# Disc length: 822 seconds
#
# Revision: 0
# Processed by: cddbd v1.5PL3 Copyright (c) Steve Scherf et al.
# Submitted via: CDex 1.40Release
#
DISCID=1c033403
DTITLE=松田 樹利亜 - 負けないBroken Heart
DYEAR=1994
DGENRE=J-POP
TTITLE0=負けないBroken Heart
TTITLE1=生まれたままの輝きみたい
TTITLE2=負けないBroken Heart(オリジナル・カラオケ)
EXTD=YEAR: 1994
EXTT0=
EXTT1=
EXTT2=
PLAYORDER=
